<mxfile host="Electron" agent="Mozilla/5.0 (X11; Linux x86_64) AppleWebKit/537.36 (KHTML, like Gecko) draw.io/24.7.17 Chrome/128.0.6613.186 Electron/32.2.1 Safari/537.36" version="24.7.17">
  <diagram name="Page-1" id="5ze-8SUu8vhUANkJ7itk">
    <mxGraphModel dx="758" dy="336" grid="1" gridSize="10" guides="1" tooltips="1" connect="1" arrows="1" fold="1" page="1" pageScale="1" pageWidth="850" pageHeight="1100" math="0" shadow="0">
      <root>
        <mxCell id="0" />
        <mxCell id="1" parent="0" />
        <mxCell id="0UxcGFWsOq1pUpLzynUH-1" value="" style="ellipse;whiteSpace=wrap;html=1;aspect=fixed;" parent="1" vertex="1">
          <mxGeometry x="120" y="450" width="30" height="30" as="geometry" />
        </mxCell>
        <mxCell id="0UxcGFWsOq1pUpLzynUH-8" style="edgeStyle=orthogonalEdgeStyle;rounded=0;orthogonalLoop=1;jettySize=auto;html=1;exitX=1;exitY=0.5;exitDx=0;exitDy=0;entryX=0;entryY=0.5;entryDx=0;entryDy=0;strokeWidth=2;" parent="1" source="0UxcGFWsOq1pUpLzynUH-2" target="0UxcGFWsOq1pUpLzynUH-4" edge="1">
          <mxGeometry relative="1" as="geometry" />
        </mxCell>
        <mxCell id="0UxcGFWsOq1pUpLzynUH-2" value="" style="ellipse;whiteSpace=wrap;html=1;aspect=fixed;" parent="1" vertex="1">
          <mxGeometry x="180" y="450" width="30" height="30" as="geometry" />
        </mxCell>
        <mxCell id="0UxcGFWsOq1pUpLzynUH-3" value="" style="endArrow=classic;html=1;rounded=0;exitX=1;exitY=0.5;exitDx=0;exitDy=0;entryX=0;entryY=0.5;entryDx=0;entryDy=0;strokeWidth=2;" parent="1" source="0UxcGFWsOq1pUpLzynUH-1" target="0UxcGFWsOq1pUpLzynUH-2" edge="1">
          <mxGeometry width="50" height="50" relative="1" as="geometry">
            <mxPoint x="250" y="500" as="sourcePoint" />
            <mxPoint x="300" y="450" as="targetPoint" />
          </mxGeometry>
        </mxCell>
        <mxCell id="0UxcGFWsOq1pUpLzynUH-18" value="T1" style="edgeLabel;html=1;align=center;verticalAlign=middle;resizable=0;points=[];" parent="0UxcGFWsOq1pUpLzynUH-3" vertex="1" connectable="0">
          <mxGeometry x="-0.3563" y="1" relative="1" as="geometry">
            <mxPoint y="-14" as="offset" />
          </mxGeometry>
        </mxCell>
        <mxCell id="0UxcGFWsOq1pUpLzynUH-4" value="" style="ellipse;whiteSpace=wrap;html=1;aspect=fixed;" parent="1" vertex="1">
          <mxGeometry x="240" y="450" width="30" height="30" as="geometry" />
        </mxCell>
        <mxCell id="0UxcGFWsOq1pUpLzynUH-12" style="edgeStyle=orthogonalEdgeStyle;rounded=0;orthogonalLoop=1;jettySize=auto;html=1;exitX=1;exitY=0.5;exitDx=0;exitDy=0;entryX=0;entryY=0.5;entryDx=0;entryDy=0;strokeWidth=2;" parent="1" source="0UxcGFWsOq1pUpLzynUH-5" target="0UxcGFWsOq1pUpLzynUH-9" edge="1">
          <mxGeometry relative="1" as="geometry" />
        </mxCell>
        <mxCell id="0UxcGFWsOq1pUpLzynUH-5" value="" style="ellipse;whiteSpace=wrap;html=1;aspect=fixed;" parent="1" vertex="1">
          <mxGeometry x="300" y="450" width="30" height="30" as="geometry" />
        </mxCell>
        <mxCell id="0UxcGFWsOq1pUpLzynUH-6" value="" style="endArrow=classic;html=1;rounded=0;exitX=1;exitY=0.5;exitDx=0;exitDy=0;entryX=0;entryY=0.5;entryDx=0;entryDy=0;strokeWidth=2;" parent="1" source="0UxcGFWsOq1pUpLzynUH-4" target="0UxcGFWsOq1pUpLzynUH-5" edge="1">
          <mxGeometry width="50" height="50" relative="1" as="geometry">
            <mxPoint x="370" y="500" as="sourcePoint" />
            <mxPoint x="420" y="450" as="targetPoint" />
          </mxGeometry>
        </mxCell>
        <mxCell id="0UxcGFWsOq1pUpLzynUH-17" style="edgeStyle=orthogonalEdgeStyle;rounded=0;orthogonalLoop=1;jettySize=auto;html=1;exitX=1;exitY=0.5;exitDx=0;exitDy=0;entryX=0;entryY=0.5;entryDx=0;entryDy=0;strokeWidth=2;" parent="1" source="0UxcGFWsOq1pUpLzynUH-9" target="0UxcGFWsOq1pUpLzynUH-11" edge="1">
          <mxGeometry relative="1" as="geometry" />
        </mxCell>
        <mxCell id="0UxcGFWsOq1pUpLzynUH-9" value="" style="ellipse;whiteSpace=wrap;html=1;aspect=fixed;" parent="1" vertex="1">
          <mxGeometry x="360" y="450" width="30" height="30" as="geometry" />
        </mxCell>
        <mxCell id="0UxcGFWsOq1pUpLzynUH-10" value="" style="ellipse;whiteSpace=wrap;html=1;aspect=fixed;" parent="1" vertex="1">
          <mxGeometry x="400" y="400" width="30" height="30" as="geometry" />
        </mxCell>
        <mxCell id="0UxcGFWsOq1pUpLzynUH-28" style="edgeStyle=orthogonalEdgeStyle;rounded=0;orthogonalLoop=1;jettySize=auto;html=1;exitX=1;exitY=0.5;exitDx=0;exitDy=0;entryX=0;entryY=0.5;entryDx=0;entryDy=0;strokeWidth=2;" parent="1" source="0UxcGFWsOq1pUpLzynUH-11" target="0UxcGFWsOq1pUpLzynUH-26" edge="1">
          <mxGeometry relative="1" as="geometry" />
        </mxCell>
        <mxCell id="0UxcGFWsOq1pUpLzynUH-11" value="" style="ellipse;whiteSpace=wrap;html=1;aspect=fixed;" parent="1" vertex="1">
          <mxGeometry x="440" y="450" width="30" height="30" as="geometry" />
        </mxCell>
        <mxCell id="0UxcGFWsOq1pUpLzynUH-14" value="" style="endArrow=classic;html=1;rounded=0;exitX=1;exitY=0;exitDx=0;exitDy=0;entryX=0;entryY=1;entryDx=0;entryDy=0;" parent="1" source="0UxcGFWsOq1pUpLzynUH-9" target="0UxcGFWsOq1pUpLzynUH-10" edge="1">
          <mxGeometry width="50" height="50" relative="1" as="geometry">
            <mxPoint x="410" y="470" as="sourcePoint" />
            <mxPoint x="460" y="420" as="targetPoint" />
          </mxGeometry>
        </mxCell>
        <mxCell id="0UxcGFWsOq1pUpLzynUH-16" value="" style="endArrow=classic;html=1;rounded=0;exitX=1;exitY=1;exitDx=0;exitDy=0;entryX=0;entryY=0;entryDx=0;entryDy=0;" parent="1" source="0UxcGFWsOq1pUpLzynUH-10" target="0UxcGFWsOq1pUpLzynUH-11" edge="1">
          <mxGeometry width="50" height="50" relative="1" as="geometry">
            <mxPoint x="396" y="464" as="sourcePoint" />
            <mxPoint x="414" y="436" as="targetPoint" />
          </mxGeometry>
        </mxCell>
        <mxCell id="0UxcGFWsOq1pUpLzynUH-19" value="T2" style="edgeLabel;html=1;align=center;verticalAlign=middle;resizable=0;points=[];" parent="1" vertex="1" connectable="0">
          <mxGeometry x="220.00000000000003" y="450" as="geometry" />
        </mxCell>
        <mxCell id="0UxcGFWsOq1pUpLzynUH-20" value="T3" style="edgeLabel;html=1;align=center;verticalAlign=middle;resizable=0;points=[];" parent="1" vertex="1" connectable="0">
          <mxGeometry x="280" y="450" as="geometry" />
        </mxCell>
        <mxCell id="0UxcGFWsOq1pUpLzynUH-21" value="T4" style="edgeLabel;html=1;align=center;verticalAlign=middle;resizable=0;points=[];" parent="1" vertex="1" connectable="0">
          <mxGeometry x="340" y="450" as="geometry" />
        </mxCell>
        <mxCell id="0UxcGFWsOq1pUpLzynUH-22" value="T5" style="edgeLabel;html=1;align=center;verticalAlign=middle;resizable=0;points=[];" parent="1" vertex="1" connectable="0">
          <mxGeometry x="375" y="430" as="geometry" />
        </mxCell>
        <mxCell id="0UxcGFWsOq1pUpLzynUH-23" value="T7" style="edgeLabel;html=1;align=center;verticalAlign=middle;resizable=0;points=[];" parent="1" vertex="1" connectable="0">
          <mxGeometry x="450" y="430" as="geometry" />
        </mxCell>
        <mxCell id="0UxcGFWsOq1pUpLzynUH-24" value="T6" style="edgeLabel;html=1;align=center;verticalAlign=middle;resizable=0;points=[];" parent="1" vertex="1" connectable="0">
          <mxGeometry x="415" y="480" as="geometry" />
        </mxCell>
        <mxCell id="0UxcGFWsOq1pUpLzynUH-29" style="edgeStyle=orthogonalEdgeStyle;rounded=0;orthogonalLoop=1;jettySize=auto;html=1;exitX=1;exitY=0.5;exitDx=0;exitDy=0;entryX=0;entryY=0.5;entryDx=0;entryDy=0;strokeWidth=2;" parent="1" source="0UxcGFWsOq1pUpLzynUH-26" target="0UxcGFWsOq1pUpLzynUH-27" edge="1">
          <mxGeometry relative="1" as="geometry" />
        </mxCell>
        <mxCell id="0UxcGFWsOq1pUpLzynUH-26" value="" style="ellipse;whiteSpace=wrap;html=1;aspect=fixed;" parent="1" vertex="1">
          <mxGeometry x="500" y="450" width="30" height="30" as="geometry" />
        </mxCell>
        <mxCell id="0UxcGFWsOq1pUpLzynUH-36" style="edgeStyle=orthogonalEdgeStyle;rounded=0;orthogonalLoop=1;jettySize=auto;html=1;exitX=1;exitY=0.5;exitDx=0;exitDy=0;entryX=0;entryY=0.5;entryDx=0;entryDy=0;strokeWidth=2;" parent="1" source="0UxcGFWsOq1pUpLzynUH-27" target="0UxcGFWsOq1pUpLzynUH-34" edge="1">
          <mxGeometry relative="1" as="geometry" />
        </mxCell>
        <mxCell id="0UxcGFWsOq1pUpLzynUH-27" value="" style="ellipse;whiteSpace=wrap;html=1;aspect=fixed;" parent="1" vertex="1">
          <mxGeometry x="560" y="450" width="30" height="30" as="geometry" />
        </mxCell>
        <mxCell id="0UxcGFWsOq1pUpLzynUH-30" value="T8" style="edgeLabel;html=1;align=center;verticalAlign=middle;resizable=0;points=[];" parent="1" vertex="1" connectable="0">
          <mxGeometry x="480" y="450" as="geometry" />
        </mxCell>
        <mxCell id="0UxcGFWsOq1pUpLzynUH-31" value="T9" style="edgeLabel;html=1;align=center;verticalAlign=middle;resizable=0;points=[];" parent="1" vertex="1" connectable="0">
          <mxGeometry x="540" y="450" as="geometry" />
        </mxCell>
        <mxCell id="0UxcGFWsOq1pUpLzynUH-32" value="" style="ellipse;whiteSpace=wrap;html=1;aspect=fixed;" parent="1" vertex="1">
          <mxGeometry x="600" y="500" width="30" height="30" as="geometry" />
        </mxCell>
        <mxCell id="0UxcGFWsOq1pUpLzynUH-33" value="" style="endArrow=classic;html=1;rounded=0;exitX=1;exitY=1;exitDx=0;exitDy=0;entryX=0;entryY=0;entryDx=0;entryDy=0;strokeWidth=2;" parent="1" source="0UxcGFWsOq1pUpLzynUH-27" target="0UxcGFWsOq1pUpLzynUH-32" edge="1">
          <mxGeometry width="50" height="50" relative="1" as="geometry">
            <mxPoint x="590" y="480" as="sourcePoint" />
            <mxPoint x="608" y="508" as="targetPoint" />
          </mxGeometry>
        </mxCell>
        <mxCell id="0UxcGFWsOq1pUpLzynUH-34" value="" style="ellipse;whiteSpace=wrap;html=1;aspect=fixed;" parent="1" vertex="1">
          <mxGeometry x="640" y="450" width="30" height="30" as="geometry" />
        </mxCell>
        <mxCell id="0UxcGFWsOq1pUpLzynUH-35" value="" style="endArrow=classic;html=1;rounded=0;exitX=1;exitY=0;exitDx=0;exitDy=0;entryX=0;entryY=1;entryDx=0;entryDy=0;strokeWidth=2;" parent="1" source="0UxcGFWsOq1pUpLzynUH-32" target="0UxcGFWsOq1pUpLzynUH-34" edge="1">
          <mxGeometry width="50" height="50" relative="1" as="geometry">
            <mxPoint x="596" y="486" as="sourcePoint" />
            <mxPoint x="614" y="514" as="targetPoint" />
          </mxGeometry>
        </mxCell>
        <mxCell id="0UxcGFWsOq1pUpLzynUH-37" value="T10" style="edgeLabel;html=1;align=center;verticalAlign=middle;resizable=0;points=[];" parent="1" vertex="1" connectable="0">
          <mxGeometry x="580" y="500" as="geometry" />
        </mxCell>
        <mxCell id="0UxcGFWsOq1pUpLzynUH-38" value="T11" style="edgeLabel;html=1;align=center;verticalAlign=middle;resizable=0;points=[];" parent="1" vertex="1" connectable="0">
          <mxGeometry x="650" y="500" as="geometry" />
        </mxCell>
        <mxCell id="0UxcGFWsOq1pUpLzynUH-39" value="T12" style="edgeLabel;html=1;align=center;verticalAlign=middle;resizable=0;points=[];" parent="1" vertex="1" connectable="0">
          <mxGeometry x="610" y="450" as="geometry" />
        </mxCell>
        <mxCell id="0UxcGFWsOq1pUpLzynUH-40" value="" style="ellipse;whiteSpace=wrap;html=1;aspect=fixed;" parent="1" vertex="1">
          <mxGeometry x="700" y="450" width="30" height="30" as="geometry" />
        </mxCell>
        <mxCell id="0UxcGFWsOq1pUpLzynUH-41" style="edgeStyle=orthogonalEdgeStyle;rounded=0;orthogonalLoop=1;jettySize=auto;html=1;exitX=1;exitY=0.5;exitDx=0;exitDy=0;entryX=0;entryY=0.5;entryDx=0;entryDy=0;strokeWidth=2;" parent="1" source="0UxcGFWsOq1pUpLzynUH-34" target="0UxcGFWsOq1pUpLzynUH-40" edge="1">
          <mxGeometry relative="1" as="geometry" />
        </mxCell>
        <mxCell id="0UxcGFWsOq1pUpLzynUH-45" style="edgeStyle=orthogonalEdgeStyle;rounded=0;orthogonalLoop=1;jettySize=auto;html=1;exitX=1;exitY=0.5;exitDx=0;exitDy=0;entryX=0;entryY=0.5;entryDx=0;entryDy=0;strokeWidth=2;" parent="1" source="0UxcGFWsOq1pUpLzynUH-42" target="0UxcGFWsOq1pUpLzynUH-43" edge="1">
          <mxGeometry relative="1" as="geometry" />
        </mxCell>
        <mxCell id="0UxcGFWsOq1pUpLzynUH-42" value="" style="ellipse;whiteSpace=wrap;html=1;aspect=fixed;" parent="1" vertex="1">
          <mxGeometry x="760" y="450" width="30" height="30" as="geometry" />
        </mxCell>
        <mxCell id="0UxcGFWsOq1pUpLzynUH-43" value="" style="ellipse;whiteSpace=wrap;html=1;aspect=fixed;" parent="1" vertex="1">
          <mxGeometry x="820" y="450" width="30" height="30" as="geometry" />
        </mxCell>
        <mxCell id="0UxcGFWsOq1pUpLzynUH-44" style="edgeStyle=orthogonalEdgeStyle;rounded=0;orthogonalLoop=1;jettySize=auto;html=1;exitX=1;exitY=0.5;exitDx=0;exitDy=0;entryX=0;entryY=0.5;entryDx=0;entryDy=0;strokeWidth=2;" parent="1" source="0UxcGFWsOq1pUpLzynUH-40" target="0UxcGFWsOq1pUpLzynUH-42" edge="1">
          <mxGeometry relative="1" as="geometry" />
        </mxCell>
        <mxCell id="0UxcGFWsOq1pUpLzynUH-46" value="T13" style="edgeLabel;html=1;align=center;verticalAlign=middle;resizable=0;points=[];" parent="1" vertex="1" connectable="0">
          <mxGeometry x="680" y="450" as="geometry" />
        </mxCell>
        <mxCell id="0UxcGFWsOq1pUpLzynUH-47" value="T14" style="edgeLabel;html=1;align=center;verticalAlign=middle;resizable=0;points=[];" parent="1" vertex="1" connectable="0">
          <mxGeometry x="740" y="450" as="geometry" />
        </mxCell>
        <mxCell id="0UxcGFWsOq1pUpLzynUH-48" value="T15" style="edgeLabel;html=1;align=center;verticalAlign=middle;resizable=0;points=[];" parent="1" vertex="1" connectable="0">
          <mxGeometry x="800" y="450" as="geometry" />
        </mxCell>
        <mxCell id="mNSK18W1kDb9UIKjjU1Q-3" style="edgeStyle=orthogonalEdgeStyle;rounded=0;orthogonalLoop=1;jettySize=auto;html=1;exitX=1;exitY=0.5;exitDx=0;exitDy=0;entryX=0;entryY=0.5;entryDx=0;entryDy=0;" edge="1" parent="1" source="mNSK18W1kDb9UIKjjU1Q-1" target="mNSK18W1kDb9UIKjjU1Q-2">
          <mxGeometry relative="1" as="geometry" />
        </mxCell>
        <mxCell id="mNSK18W1kDb9UIKjjU1Q-1" value="" style="ellipse;whiteSpace=wrap;html=1;aspect=fixed;" vertex="1" parent="1">
          <mxGeometry x="55" y="160" width="50" height="50" as="geometry" />
        </mxCell>
        <mxCell id="mNSK18W1kDb9UIKjjU1Q-10" style="edgeStyle=orthogonalEdgeStyle;rounded=0;orthogonalLoop=1;jettySize=auto;html=1;exitX=0.5;exitY=0;exitDx=0;exitDy=0;entryX=0;entryY=0.5;entryDx=0;entryDy=0;" edge="1" parent="1" source="mNSK18W1kDb9UIKjjU1Q-2" target="mNSK18W1kDb9UIKjjU1Q-7">
          <mxGeometry relative="1" as="geometry" />
        </mxCell>
        <mxCell id="mNSK18W1kDb9UIKjjU1Q-12" style="edgeStyle=orthogonalEdgeStyle;rounded=0;orthogonalLoop=1;jettySize=auto;html=1;exitX=1;exitY=0.5;exitDx=0;exitDy=0;entryX=0;entryY=0.5;entryDx=0;entryDy=0;" edge="1" parent="1" source="mNSK18W1kDb9UIKjjU1Q-2" target="mNSK18W1kDb9UIKjjU1Q-8">
          <mxGeometry relative="1" as="geometry" />
        </mxCell>
        <mxCell id="mNSK18W1kDb9UIKjjU1Q-14" style="edgeStyle=orthogonalEdgeStyle;rounded=0;orthogonalLoop=1;jettySize=auto;html=1;exitX=0.5;exitY=1;exitDx=0;exitDy=0;entryX=0;entryY=0.5;entryDx=0;entryDy=0;" edge="1" parent="1" source="mNSK18W1kDb9UIKjjU1Q-2" target="mNSK18W1kDb9UIKjjU1Q-9">
          <mxGeometry relative="1" as="geometry" />
        </mxCell>
        <mxCell id="mNSK18W1kDb9UIKjjU1Q-2" value="" style="ellipse;whiteSpace=wrap;html=1;aspect=fixed;" vertex="1" parent="1">
          <mxGeometry x="180" y="160" width="50" height="50" as="geometry" />
        </mxCell>
        <mxCell id="mNSK18W1kDb9UIKjjU1Q-6" value="&lt;font style=&quot;font-size: 8px;&quot;&gt;Запуск&lt;/font&gt;&lt;div style=&quot;font-size: 8px;&quot;&gt;&lt;font style=&quot;font-size: 8px;&quot;&gt;микроконтроллера&lt;/font&gt;&lt;/div&gt;" style="text;html=1;align=center;verticalAlign=middle;whiteSpace=wrap;rounded=0;fontSize=8;spacing=0;" vertex="1" parent="1">
          <mxGeometry x="112" y="150" width="60" height="30" as="geometry" />
        </mxCell>
        <mxCell id="mNSK18W1kDb9UIKjjU1Q-7" value="" style="ellipse;whiteSpace=wrap;html=1;aspect=fixed;" vertex="1" parent="1">
          <mxGeometry x="290" y="80" width="50" height="50" as="geometry" />
        </mxCell>
        <mxCell id="mNSK18W1kDb9UIKjjU1Q-22" style="edgeStyle=orthogonalEdgeStyle;rounded=0;orthogonalLoop=1;jettySize=auto;html=1;exitX=1;exitY=0.5;exitDx=0;exitDy=0;entryX=0;entryY=0.5;entryDx=0;entryDy=0;" edge="1" parent="1" source="mNSK18W1kDb9UIKjjU1Q-8" target="mNSK18W1kDb9UIKjjU1Q-16">
          <mxGeometry relative="1" as="geometry" />
        </mxCell>
        <mxCell id="mNSK18W1kDb9UIKjjU1Q-8" value="" style="ellipse;whiteSpace=wrap;html=1;aspect=fixed;" vertex="1" parent="1">
          <mxGeometry x="290" y="160" width="50" height="50" as="geometry" />
        </mxCell>
        <mxCell id="mNSK18W1kDb9UIKjjU1Q-21" style="edgeStyle=orthogonalEdgeStyle;rounded=0;orthogonalLoop=1;jettySize=auto;html=1;exitX=1;exitY=0.5;exitDx=0;exitDy=0;entryX=0;entryY=0.5;entryDx=0;entryDy=0;" edge="1" parent="1" source="mNSK18W1kDb9UIKjjU1Q-9" target="mNSK18W1kDb9UIKjjU1Q-16">
          <mxGeometry relative="1" as="geometry">
            <mxPoint x="350.00000000000193" y="260" as="sourcePoint" />
            <mxPoint x="460.0000000000007" y="180" as="targetPoint" />
            <Array as="points">
              <mxPoint x="360" y="265" />
              <mxPoint x="360" y="185" />
            </Array>
          </mxGeometry>
        </mxCell>
        <mxCell id="mNSK18W1kDb9UIKjjU1Q-9" value="" style="ellipse;whiteSpace=wrap;html=1;aspect=fixed;" vertex="1" parent="1">
          <mxGeometry x="290" y="240" width="50" height="50" as="geometry" />
        </mxCell>
        <mxCell id="mNSK18W1kDb9UIKjjU1Q-11" value="Инициализация UART" style="text;html=1;align=center;verticalAlign=middle;whiteSpace=wrap;rounded=0;fontSize=8;spacing=0;" vertex="1" parent="1">
          <mxGeometry x="230" y="70" width="60" height="30" as="geometry" />
        </mxCell>
        <mxCell id="mNSK18W1kDb9UIKjjU1Q-13" value="Инициализация LCD-дисплея" style="text;html=1;align=center;verticalAlign=middle;whiteSpace=wrap;rounded=0;fontSize=8;spacing=0;" vertex="1" parent="1">
          <mxGeometry x="230" y="150" width="60" height="30" as="geometry" />
        </mxCell>
        <mxCell id="mNSK18W1kDb9UIKjjU1Q-15" value="Инициализация RTC-часов" style="text;html=1;align=center;verticalAlign=middle;whiteSpace=wrap;rounded=0;fontSize=8;spacing=0;" vertex="1" parent="1">
          <mxGeometry x="230" y="230" width="60" height="30" as="geometry" />
        </mxCell>
        <mxCell id="mNSK18W1kDb9UIKjjU1Q-28" style="edgeStyle=orthogonalEdgeStyle;rounded=0;orthogonalLoop=1;jettySize=auto;html=1;exitX=1;exitY=0.5;exitDx=0;exitDy=0;entryX=0;entryY=0.5;entryDx=0;entryDy=0;" edge="1" parent="1" source="mNSK18W1kDb9UIKjjU1Q-16" target="mNSK18W1kDb9UIKjjU1Q-25">
          <mxGeometry relative="1" as="geometry" />
        </mxCell>
        <mxCell id="mNSK18W1kDb9UIKjjU1Q-16" value="" style="ellipse;whiteSpace=wrap;html=1;aspect=fixed;" vertex="1" parent="1">
          <mxGeometry x="430" y="160" width="50" height="50" as="geometry" />
        </mxCell>
        <mxCell id="mNSK18W1kDb9UIKjjU1Q-23" style="edgeStyle=orthogonalEdgeStyle;rounded=0;orthogonalLoop=1;jettySize=auto;html=1;exitX=1;exitY=0.5;exitDx=0;exitDy=0;entryX=0;entryY=0.5;entryDx=0;entryDy=0;" edge="1" parent="1" source="mNSK18W1kDb9UIKjjU1Q-7" target="mNSK18W1kDb9UIKjjU1Q-16">
          <mxGeometry relative="1" as="geometry">
            <mxPoint x="340.00000000000193" y="95" as="sourcePoint" />
            <mxPoint x="440" y="90" as="targetPoint" />
            <Array as="points">
              <mxPoint x="360" y="105" />
              <mxPoint x="360" y="185" />
            </Array>
          </mxGeometry>
        </mxCell>
        <mxCell id="mNSK18W1kDb9UIKjjU1Q-24" value="Инициализация электронных компонентов" style="text;html=1;align=center;verticalAlign=middle;whiteSpace=wrap;rounded=0;fontSize=8;spacing=0;" vertex="1" parent="1">
          <mxGeometry x="370" y="150" width="60" height="30" as="geometry" />
        </mxCell>
        <mxCell id="mNSK18W1kDb9UIKjjU1Q-29" style="edgeStyle=orthogonalEdgeStyle;rounded=0;orthogonalLoop=1;jettySize=auto;html=1;exitX=1;exitY=0.5;exitDx=0;exitDy=0;entryX=0;entryY=0.5;entryDx=0;entryDy=0;" edge="1" parent="1" source="mNSK18W1kDb9UIKjjU1Q-25" target="mNSK18W1kDb9UIKjjU1Q-26">
          <mxGeometry relative="1" as="geometry" />
        </mxCell>
        <mxCell id="mNSK18W1kDb9UIKjjU1Q-25" value="" style="ellipse;whiteSpace=wrap;html=1;aspect=fixed;" vertex="1" parent="1">
          <mxGeometry x="540" y="160" width="50" height="50" as="geometry" />
        </mxCell>
        <mxCell id="mNSK18W1kDb9UIKjjU1Q-26" value="" style="ellipse;whiteSpace=wrap;html=1;aspect=fixed;" vertex="1" parent="1">
          <mxGeometry x="650" y="160" width="50" height="50" as="geometry" />
        </mxCell>
        <mxCell id="mNSK18W1kDb9UIKjjU1Q-32" style="edgeStyle=orthogonalEdgeStyle;rounded=0;orthogonalLoop=1;jettySize=auto;html=1;exitX=1;exitY=0.5;exitDx=0;exitDy=0;entryX=0.5;entryY=0;entryDx=0;entryDy=0;" edge="1" parent="1" source="mNSK18W1kDb9UIKjjU1Q-26" target="mNSK18W1kDb9UIKjjU1Q-16">
          <mxGeometry relative="1" as="geometry">
            <mxPoint x="785.0000000000002" y="160" as="sourcePoint" />
            <Array as="points">
              <mxPoint x="730" y="185" />
              <mxPoint x="730" y="100" />
              <mxPoint x="455" y="100" />
            </Array>
          </mxGeometry>
        </mxCell>
        <mxCell id="mNSK18W1kDb9UIKjjU1Q-33" value="Замер текущего времени" style="text;html=1;align=center;verticalAlign=middle;whiteSpace=wrap;rounded=0;fontSize=8;spacing=0;" vertex="1" parent="1">
          <mxGeometry x="480" y="150" width="60" height="30" as="geometry" />
        </mxCell>
        <mxCell id="mNSK18W1kDb9UIKjjU1Q-34" value="Форматирование и тображение данных на LCD" style="text;html=1;align=center;verticalAlign=middle;whiteSpace=wrap;rounded=0;fontSize=8;spacing=0;" vertex="1" parent="1">
          <mxGeometry x="590" y="150" width="60" height="30" as="geometry" />
        </mxCell>
        <mxCell id="mNSK18W1kDb9UIKjjU1Q-35" value="Задержка 1000 миллисекунд" style="text;html=1;align=center;verticalAlign=middle;whiteSpace=wrap;rounded=0;fontSize=8;spacing=0;" vertex="1" parent="1">
          <mxGeometry x="585" y="70" width="60" height="30" as="geometry" />
        </mxCell>
      </root>
    </mxGraphModel>
  </diagram>
</mxfile>
